<?xml version="1.0" encoding="UTF-8"?>
<!-- Created with Inkscape (http://www.inkscape.org/) -->
<svg width="46.17mm" height="13.046mm" version="1.1" viewBox="0 0 46.17 13.046" xmlns="http://www.w3.org/2000/svg">
 <g transform="translate(-46.155 -174.64)">
  <path d="m66.984 174.77c-1.4699 0-2.6068 0.3359-3.4106 1.0077-0.80386 0.66606-1.2056 1.6104-1.2056 2.8334v9e-3c0 0.75792 0.12615 1.3638 0.37879 1.8175 0.25838 0.4536 0.59732 0.80368 1.0165 1.0506 0.41915 0.24116 0.87816 0.4195 1.3777 0.53433 0.49954 0.1091 0.99351 0.20079 1.4816 0.27544 0.40767 0.0632 0.78359 0.14068 1.1281 0.23254 0.35025 0.0919 0.63194 0.23525 0.84439 0.43047 0.21245 0.18948 0.31833 0.46509 0.31833 0.82682v9e-3c0 0.47657-0.21228 0.84692-0.63717 1.111-0.4249 0.25838-1.0222 0.38757-1.7916 0.38757-0.66605 0-1.3145-0.1064-1.9461-0.31884-0.6316-0.21819-1.1889-0.52521-1.6712-0.9214l-1.0935 1.9461c0.40193 0.32729 0.85232 0.60898 1.3519 0.84439 0.49954 0.22968 1.0335 0.40446 1.602 0.52503 0.57418 0.12058 1.1598 0.18087 1.757 0.18087 1.5158 0 2.6902-0.33033 3.5228-0.99064 0.83257-0.66605 1.249-1.6018 1.249-2.8076v-0.0176c0-0.70624-0.11805-1.2802-0.35347-1.7224s-0.55104-0.78967-0.94723-1.0423-0.83239-0.44465-1.309-0.57671c-0.47657-0.1378-0.95636-0.25281-1.4387-0.34469-0.43638-0.0861-0.8437-0.17782-1.2227-0.27543-0.37896-0.10335-0.68649-0.25839-0.92191-0.46509-0.23542-0.20671-0.35295-0.51119-0.35295-0.91312v-9e-3c0-0.43063 0.19809-0.764 0.59428-0.99942 0.39619-0.24115 0.95601-0.36173 1.6795-0.36173 0.48231 0 0.9849 0.0922 1.5074 0.27595 0.52825 0.17799 1.0334 0.43638 1.5157 0.77514l0.99891-1.9983c-0.60289-0.41916-1.2544-0.74087-1.9549-0.9648-0.7005-0.22968-1.3895-0.34417-2.0671-0.34417zm10.352 5.2e-4c-0.95889 0-1.7771 0.18391-2.4546 0.55139-0.67179 0.36747-1.1855 0.89842-1.5415 1.5932-0.35599 0.69477-0.53382 1.5388-0.53382 2.5322v3.4365c0 0.98759 0.17782 1.8316 0.53382 2.5322 0.35599 0.69476 0.86971 1.2257 1.5415 1.5932 0.67754 0.36173 1.4957 0.5426 2.4546 0.5426 0.79237 0 1.4961-0.16921 2.1105-0.50798 0.61438-0.33876 1.1225-0.82969 1.5245-1.4728 0.40767-0.64882 0.69189-1.4295 0.85266-2.3425h-2.4464c-0.13206 0.62586-0.37574 1.1107-0.73174 1.4552-0.35599 0.33877-0.79272 0.5085-1.3095 0.5085-0.66031 0-1.174-0.20114-1.5415-0.60307-0.36174-0.40192-0.5426-0.97037-0.5426-1.7053v-3.4365c0-0.73496 0.18087-1.3034 0.5426-1.7053 0.36748-0.40767 0.8812-0.61133 1.5415-0.61133 0.33877 0 0.64326 0.0775 0.91312 0.23255 0.27561 0.15502 0.50815 0.37896 0.69763 0.67179 0.19522 0.28709 0.3386 0.64021 0.43046 1.0594h2.4464c-0.15503-0.9187-0.43672-1.6999-0.84439-2.343-0.40193-0.64309-0.9126-1.134-1.5327-1.4728-0.61438-0.33877-1.3181-0.50798-2.1105-0.50798zm-31.049 0.12919v12.523h4.1341c1.0967 0 2.0096-0.18643 2.7389-0.55965 0.73495-0.37896 1.2862-0.90434 1.6536-1.5761 0.36748-0.67753 0.55139-1.4613 0.55139-2.3513v-3.5486c0-1.424-0.43064-2.5264-1.2919-3.3073-0.85553-0.78663-2.0699-1.1798-3.6432-1.1798h-2.9543zm11.231 0v12.523h2.4464v-12.523zm26.286 0v12.523h8.3886v-2.2738h-6.0286v-2.8076h5.0813v-2.2738h-5.0813v-2.8939h6.0286v-2.2738h-7.536zm-35.157 2.2738h1.8345c0.77515 0 1.375 0.18645 1.7999 0.55966 0.4249 0.37322 0.63717 0.90164 0.63717 1.5849v3.6861c0 0.67754-0.21228 1.206-0.63717 1.5849-0.4249 0.37322-1.0247 0.55966-1.7999 0.55966h-1.8345z" fill="#fff" stroke="#000" stroke-width=".26458"/>
 </g>
</svg>
